# AST/ASF file generated using VICON BodyLanguage
# -----------------------------------------------
:version 1.10
:name VICON
:units
  mass 1.0
  length 0.45
  angle deg
:documentation
   .ast/.asf automatically generated from VICON data using
   VICON BodyBuilder and BodyLanguage model FoxedUp or BRILLIANT.MOD
:root
   order TX TY TZ RX RY RZ
   axis XYZ
   position 0 0 0  
   orientation 0 -0 0 
:bonedata
  begin
     id 1 
     name lhipjoint
     direction 0.432694 -0.693742 0.575759 
     length 2.19277 
     axis 0 -0 0  XYZ
  end
  begin
     id 2 
     name lfemur
     direction 0.34202 -0.939693 0  
     length 6.69022  
     axis 0 -0 20  XYZ
    dof rx ry rz
    limits (-160.0 20.0)
           (-70.0 70.0)
           (-60.0 70.0)
  end
  begin
     id 3 
     name ltibia
     direction 0.34202 -0.939693 0   
     length 6.50337   
     axis 0 -0 20   XYZ
    dof rx
    limits (-10.0 170.0)
  end
  begin
     id 4 
     name lfoot
     direction 0.158999 -0.435969 0.885805   
     length 2.70564   
     axis -90 -1.13533e-015 20   XYZ
    dof rx rz
    limits (-45.0 90.0)
           (-70.0 20.0)
  end
  begin
     id 5 
     name ltoes
     direction -0.00592919 0.00964381 0.999936   
     length 1.29929   
     axis -90 -1.13533e-015 20   XYZ
    dof rx
    limits (-90.0 20.0)
  end
  begin
     id 6 
     name rhipjoint
     direction -0.414359 -0.700339 0.581234   
     length 2.17212  
     axis 0 -0 0  XYZ 
  end
  begin
     id 7 
     name rfemur
     direction -0.34202 -0.939693 0   
     length 7.17659   
     axis 0 -0 -20   XYZ
    dof rx ry rz
    limits (-160.0 20.0)
           (-70.0 70.0)
           (-70.0 60.0)
  end
  begin
     id 8 
     name rtibia
     direction -0.34202 -0.939693 0   
     length 6.36669   
     axis 0 -0 -20   XYZ
    dof rx
    limits (-10.0 170.0)
 end
 begin
     id 9 
     name rfoot
     direction -0.137064 -0.37658 0.916188   
     length 2.22351  
     axis -90 1.13533e-015 -20   XYZ
    dof rx rz
    limits (-45.0 90.0)
           (-20.0 70.0)
  end
  begin
     id 10 
     name rtoes
     direction -0.000784077 -0.00289101 0.999996   
     length 1.09522   
     axis -90 1.13533e-015 -20   XYZ
    dof rx
    limits (-90.0 20.0)
  end
  begin
     id 11 
     name lowerback
     direction -0.0176242 0.984912 -0.172157   
     length 1.65301   
     axis 0 -0 0   XYZ
    dof rx ry rz
    limits (-20.0 45.0)
           (-30.0 30.0)
           (-30.0 30.0)
  end
  begin
     id 12 
     name upperback
     direction -0.00218128 0.998776 -0.0494072   
     length 1.67776   
     axis 0 -0 0   XYZ
    dof rx ry rz
    limits (-20.0 45.0)
           (-30.0 30.0)
           (-30.0 30.0)
  end
  begin
     id 13 
     name thorax
     direction 0.00544186 0.999658 0.0255711   
     length 1.72293   
     axis 0 -0 0   XYZ
    dof rx ry rz
    limits (-20.0 45.0)
           (-30.0 30.0)
           (-30.0 30.0)
  end
  begin
     id 14 
     name lowerneck
     direction -0.105325 0.983841 0.144785   
     length 2.14226   
     axis 0 -0 0   XYZ
    dof rx ry rz
    limits (-20.0 45.0)
           (-30.0 30.0)
           (-30.0 30.0)
  end
  begin
     id 15 
     name upperneck
     direction 0.0547957 0.988053 -0.144041   
     length 2.17508   
     axis 0 -0 0   XYZ
    dof rx ry rz
    limits (-20.0 45.0)
           (-30.0 30.0)
           (-30.0 30.0)
  end
  begin
     id 16
     name head
     direction 0.0247488 0.997534 -0.0656813  
     length 2.20048  
     axis 0 -0 0   XYZ
    dof rx ry rz
    limits (-20.0 45.0)
           (-30.0 30.0)
           (-30.0 30.0)
  end
  begin
     id 17 
     name lclavicle
     direction 0.820559 0.567247 -0.0701026  
     length 4.09615  
     axis 0 -0 0   XYZ
    dof ry rz
    limits (-20.0 10.0)
           (0.0 20.0)
  end
  begin
     id 18 
     name lhumerus
     direction 0.999977 -0.0067566 -9.96392e-005   
     length 4.59333   
     axis -180 -30 -90   XYZ
    dof rx ry rz
    limits (-60.0 90.0)
           (-90.0 90.0)
           (-90.0 90.0)
  end
  begin
     id 19
     name lradius
     direction 1 -4.48982e-011 -2.53425e-027   
     length 2.81151   
     axis -180 -30 -90   XYZ
    dof rx
    limits (-10.0 170.0)
  end
  begin
     id 20
     name lwrist
     direction 1 -4.48939e-011 -7.39254e-028   
     length 1.40576   
     axis 2.56395e-016 90 90   XYZ
    dof ry
    limits (-180.0 0.0)
 end
  begin
     id 21 
     name lhand
     direction 1 -4.48939e-011 -1.47851e-027   
     length 0.895651   
     axis 9.43423e-016 90 90   XYZ
    dof rx rz
    limits (-90.0 90.0)
           (-45.0 45.0)
  end
  begin
     id 22 
     name lfingers
     direction 1 -4.48978e-011 -2.95702e-027   
     length 0.722097   
     axis 1.88685e-015 90 90   XYZ
    dof rx
    limits (0.0 90.0)
  end
  begin
     id 23
     name lthumb
     direction 0.707107 -6.34931e-011 0.707107   
     length 1.03679   
     axis -90 45 -9.86935e-015   XYZ
    dof rx rz
    limits (-45.0 45.0)
           (-45.0 45.0)
  end
  begin
     id 24 
     name rclavicle
     direction -0.831414 0.553102 -0.0531864   
     length 4.24872  
     axis 0 -0 0   XYZ 
    dof ry rz
    limits (-10.0 20.0)
           (-20.0 0.0)
  end
  begin
     id 25 
     name rhumerus
     direction -0.999916 -0.000939607 0.0129331  
     length 4.74834   
     axis -180 30 90   XYZ
    dof rx ry rz
    limits (-90.0 60.0)
           (-90.0 90.0)
           (-90.0 90.0)
  end
  begin
     id 26 
     name rradius
     direction -1 -4.48956e-011 -1.31752e-027   
     length 2.79907   
     axis -180 30 90   XYZ
    dof rx
    limits (-10.0 170.0)
  end
  begin
     id 27 
     name rwrist
     direction -1 -4.4897e-011 -7.39254e-028   
     length 1.39954   
     axis 2.56395e-016 -90 -90   XYZ
    dof ry
    limits (-180.0 0.0)
  end
  begin
     id 28
     name rhand
     direction -0.999997 -0.00250697 0.000800838   
     length 0.953304   
     axis 9.43423e-016 -90 -90   XYZ
    dof rx rz
    limits (-90.0 90.0)
           (-45.0 45.0)
  end
  begin
     id 29
     name rfingers
     direction -1 -4.48954e-011 -2.95702e-027   
     length 0.763342   
     axis 1.88685e-015 -90 -90   XYZ
    dof rx
    limits (0.0 90.0)
  end
  begin
     id 30
     name rthumb
     direction -0.709701 -0.00217037 0.7045   
     length 1.10115   
     axis -90 -45 9.86935e-015   XYZ
    dof rx rz
    limits (-45.0 45.0)
           (-45.0 45.0)
  end
:hierarchy
  begin
    root lhipjoint rhipjoint lowerback
    lhipjoint lfemur
    lfemur ltibia
    ltibia lfoot
    lfoot ltoes
    rhipjoint rfemur
    rfemur rtibia
    rtibia rfoot
    rfoot rtoes
    lowerback upperback
    upperback thorax
    thorax lowerneck lclavicle rclavicle
    lowerneck upperneck
    upperneck head
    lclavicle lhumerus
    lhumerus lradius
    lradius lwrist
    lwrist lhand lthumb
    lhand lfingers
    rclavicle rhumerus
    rhumerus rradius
    rradius rwrist
    rwrist rhand rthumb
    rhand rfingers
  end

#!OML:ASF G:\ViconDB\ViconDB\414\test\team2\shane.ASF
:FULLY-SPECIFIED
:DEGREES
34
root 3.52688 12.2739 -20.0065 6.87802 -1.60879 -2.96368
lowerback 30.7779 1.86956 0.787993
upperback 10.3762 2.72809 2.31938
thorax -5.21413 1.26778 1.20004
lowerneck -23.6011 -5.93816 -7.24221
upperneck -16.2483 -5.28308 15.3689
head -0.526231 -2.19706 5.70875
rclavicle -8.74653e-015 -1.11319e-014
rhumerus 14.0053 11.736 -27.4143
rradius 87.2831
rwrist -13.598
rhand -38.8749 -22.3468
rfingers 7.12502
rthumb -11.883 -51.9896
lclavicle -8.74653e-015 -1.11319e-014
lhumerus 16.8607 -28.8731 18.5782
lradius 82.8074
lwrist 12.4263
lhand -56.5449 13.9537
lfingers 7.12502
lthumb -28.8568 41.742
rfemur -60.3386 -31.8439 20.6354
rtibia 106.065
rfoot -41.067 -6.08816
rtoes -17.9841
lfemur -57.4084 23.1233 -8.4658
ltibia 105.217
lfoot -50.8296 -14.34
ltoes -21.4399
35
root 3.53132 12.4531 -19.953 6.1817 -1.35137 -2.86065
lowerback 30.1761 1.54409 1.03138
upperback 9.94414 2.39504 2.27881
thorax -5.40897 1.11559 1.13219
lowerneck -23.781 -5.92716 -7.31222
upperneck -15.7489 -5.29978 15.2128
head -0.357479 -2.17862 5.65601
rclavicle 2.98177e-014 6.75868e-015
rhumerus 17.1992 7.10107 -27.3911
rradius 91.28
rwrist -11.8139
rhand -39.6643 -22.2197
rfingers 7.12502
rthumb -12.6441 -51.817
lclavicle 2.98177e-014 6.75868e-015
lhumerus 16.8607 -28.8731 18.5782
lradius 82.8074
lwrist 12.4263
lhand -56.5449 13.9537
lfingers 7.12502
lthumb -28.8568 41.742
rfemur -57.9239 -31.3724 20.0011
rtibia 104.052
rfoot -40.6681 -7.13559
rtoes -17.4574
lfemur -55.2869 21.9689 -8.24331
ltibia 103.234
lfoot -50.1966 -14.033
ltoes -21.4422
36
root 3.5259 12.6581 -19.894 5.39102 -0.972408 -2.75751
lowerback 29.8174 1.27028 1.23341
upperback 9.5298 2.11534 2.22783
thorax -5.69638 0.986583 1.05338
lowerneck -24.0422 -5.83977 -7.27312
upperneck -15.0769 -5.24899 15.0146
head -0.138524 -2.12368 5.57371
rclavicle 1.86858e-014 1.94809e-014
rhumerus 20.1868 2.35012 -27.5388
rradius 95.1178
rwrist -10.4333
rhand -40.2276 -23.184
rfingers 7.12502
rthumb -13.1872 -52.7469
lclavicle 1.86858e-014 1.94809e-014
lhumerus 21.1282 -16.0719 17.0397
lradius 86.2416
lwrist 4.04399
lhand -59.5145 14.9434
lfingers 7.12502
lthumb -31.6896 42.2111
rfemur -55.1804 -30.7758 19.2371
rtibia 101.771
rfoot -40.1907 -8.15533
rtoes -16.9936
lfemur -52.8979 20.7901 -7.94889
ltibia 100.941
lfoot -49.4958 -14.2118
ltoes -21.2629
37
root 3.53835 12.8797 -19.8281 4.6057 -0.739701 -2.54614
lowerback 29.4615 0.914182 1.59477
upperback 9.1814 1.75301 1.97842
thorax -5.89807 0.819655 0.690767
lowerneck -24.2369 -5.66008 -7.19695
upperneck -14.4751 -5.07897 14.8327
head 0.038707 -2.01621 5.50419
rclavicle 1.39149e-014 1.03368e-014
rhumerus 23.199 -2.3239 -27.8774
rradius 98.7431
rwrist -9.1493
rhand -40.6687 -24.8453
rfingers 7.12502
rthumb -13.6124 -54.3802
lclavicle 1.39149e-014 1.03368e-014
lhumerus 23.162 -10.0627 16.0096
lradius 87.9647
lwrist 1.96076
lhand -60.9186 17.1309
lfingers 7.12502
lthumb -33.0259 44.1256
rfemur -52.4408 -30.1338 18.3182
rtibia 99.2321
rfoot -39.3712 -9.04745
rtoes -16.7141
lfemur -50.5088 19.7245 -8.02618
ltibia 98.3664
lfoot -48.579 -13.9939
ltoes -21.2198
38
root 3.54059 13.1315 -19.7505 3.51981 -0.473306 -2.586
lowerback 28.1645 1.1471 1.22997
upperback 9.72703 1.96017 2.67445
thorax -4.71589 0.917041 1.62281
lowerneck -22.8538 -5.73988 -8.28149
upperneck -15.6454 -4.90532 14.6557
head -0.494427 -1.95718 5.67787
rclavicle 7.95139e-015 3.18055e-015
rhumerus 26.5392 -7.99697 -27.0367
rradius 101.455
rwrist -7.40977
rhand -41.28 -25.8428
rfingers 7.12502
rthumb -14.2015 -55.3374
lclavicle 7.95139e-015 3.18055e-015
lhumerus 25.5638 -3.44365 16.5096
lradius 88.8729
lwrist -0.994586
lhand -61.198 19.427
lfingers 7.12502
lthumb -33.2916 46.3652
rfemur -49.0641 -29.3969 17.5244
rtibia 96.3617
rfoot -38.4386 -9.72249
rtoes -16.5615
lfemur -47.4858 18.8552 -7.71802
ltibia 95.4281
lfoot -47.7075 -13.8047
ltoes -21.0597
39
root 3.54588 13.4083 -19.6666 2.4515 -0.227811 -2.31942
lowerback 28.4737 1.0606 1.22701
upperback 9.3677 1.86281 2.53537
thorax -5.25664 0.872358 1.49496
lowerneck -22.7955 -5.56461 -8.02733
upperneck -15.0277 -4.80351 14.2096
head -0.357283 -1.90651 5.48676
rclavicle 8.74653e-015 7.15625e-015
rhumerus 28.9621 -12.6001 -27.2792
rradius 103.424
rwrist -5.1034
rhand -41.9197 -26.3459
rfingers 7.12502
rthumb -14.8178 -55.7961
lclavicle 8.74653e-015 7.15625e-015
lhumerus 27.5979 2.05657 15.9013
lradius 89.0604
lwrist -3.76928
lhand -62.0186 20.6295
lfingers 7.12502
lthumb -34.0714 47.3973
rfemur -45.6334 -28.5989 16.377
rtibia 93.177
rfoot -37.1639 -10.1879
rtoes -16.3611
lfemur -44.3361 17.9971 -7.84975
ltibia 92.1302
lfoot -46.5464 -13.8554
ltoes -20.8969
40
root 3.55124 13.6999 -19.5791 1.4027 0.201879 -2.33252
lowerback 30.12 0.454137 2.18471
upperback 8.23388 1.38637 1.81973
thorax -7.25612 0.637072 0.285551
lowerneck -24.1117 -5.30906 -6.88819
upperneck -12.6811 -4.87972 13.8053
head 0.480975 -1.89313 5.10892
rclavicle 3.97569e-015 -3.18055e-015
rhumerus 30.7951 -16.1616 -28.2823
rradius 104.595
rwrist -2.45298
rhand -42.4442 -26.2536
rfingers 7.12502
rthumb -15.323 -55.6659
lclavicle 3.97569e-015 -3.18055e-015
lhumerus 29.1298 6.13449 14.0724
lradius 89.7503
lwrist -4.41907
lhand -62.5458 22.7385
lfingers 7.12502
lthumb -34.5719 49.3935
rfemur -42.1049 -27.8594 15.5777
rtibia 89.6386
rfoot -35.5133 -10.6834
rtoes -16.2613
lfemur -41.1376 17.1832 -7.73331
ltibia 88.475
lfoot -45.1911 -13.9913
ltoes -20.4705
41
root 3.54615 14.0131 -19.4804 -0.0721883 0.603377 -2.54638
lowerback 30.8329 0.251544 2.61604
upperback 8.1446 1.28635 1.78483
thorax -7.6822 0.582704 0.027028
lowerneck -24.322 -5.276 -6.80553
upperneck -11.789 -4.92782 13.5801
head 0.768992 -1.89167 5.00394
rclavicle 2.26615e-014 1.63003e-014
rhumerus 33.0352 -20.5702 -28.3445
rradius 104.902
rwrist 0.614859
rhand -43.029 -26.7763
rfingers 7.12502
rthumb -15.8863 -56.1447
lclavicle 2.26615e-014 1.63003e-014
lhumerus 30.9863 11.0714 13.3928
lradius 89.9028
lwrist -4.2537
lhand -63.0846 22.9363
lfingers 7.12502
lthumb -35.0832 49.4729
rfemur -37.7772 -26.9425 14.8409
rtibia 85.6806
rfoot -33.7213 -11.0928
rtoes -16.4574
lfemur -37.1897 16.6548 -7.19033
ltibia 84.3691
lfoot -43.5843 -14.6281
ltoes -20.1067
42
root 3.52588 14.3493 -19.3626 -1.90445 0.740595 -2.54909
lowerback 31.9512 0.310146 2.33571
upperback 8.13335 1.3329 1.93107
thorax -8.22896 0.600475 0.329283
lowerneck -24.7497 -5.35254 -7.09232
upperneck -10.4212 -5.05913 13.3829
head 1.24797 -1.90108 4.95533
rclavicle 1.53064e-014 8.34896e-015
rhumerus 35.3967 -24.7092 -28.3867
rradius 104.363
rwrist 3.82166
rhand -44.5321 -24.9151
rfingers 7.12502
rthumb -17.3334 -54.1621
lclavicle 1.53064e-014 8.34896e-015
lhumerus 32.4524 15.6617 12.9616
lradius 89.3599
lwrist -3.99089
lhand -62.8616 21.1458
lfingers 7.12502
lthumb -34.8716 47.7317
rfemur -32.8242 -25.806 13.7813
rtibia 81.3646
rfoot -31.9211 -11.0668
rtoes -16.0215
lfemur -32.3624 16.3061 -6.62544
ltibia 79.8306
lfoot -41.8825 -15.5621
ltoes -19.3459
